<?xml version="1.0" encoding="UTF-8"?>
<svg id="Layer_1" data-name="Layer 1" xmlns="http://www.w3.org/2000/svg" viewBox="0 0 442.26 419.53">
  <defs>
    <style>
      .cls-1, .cls-2 {
        fill: #fff;
      }

      .cls-2 {
        stroke: #fff;
        stroke-miterlimit: 10;
      }
    </style>
  </defs>
  <g>
    <path class="cls-1" d="M135.43,377.4v-67.14h-24.07v-19.21h68.44v19.21h-24.07v67.14h-20.29Z"/>
    <path class="cls-1" d="M191.99,377.4v-86.35h32.6c8.99,0,15.96,2.05,20.89,6.15,4.93,4.1,7.39,9.9,7.39,17.38,0,3.67-.97,6.91-2.91,9.71-1.94,2.81-4.75,4.96-8.42,6.48v1.73c4.17,1.44,7.39,3.9,9.66,7.39,2.27,3.49,3.4,7.68,3.4,12.58,0,7.84-2.59,13.96-7.77,18.35-5.18,4.39-12.45,6.58-21.8,6.58h-33.03Zm20.29-52.24h11.98c3.17,0,5.61-.67,7.34-2,1.73-1.33,2.59-3.15,2.59-5.45,0-2.45-.86-4.35-2.59-5.72-1.73-1.37-4.17-2.05-7.34-2.05h-11.98v15.22Zm0,33.35h12.41c3.17,0,5.61-.7,7.34-2.11,1.73-1.4,2.59-3.33,2.59-5.77,0-2.59-.86-4.6-2.59-6.04-1.73-1.44-4.17-2.16-7.34-2.16h-12.41v16.08Z"/>
    <path class="cls-1" d="M298.1,379.56c-11.01,0-19.39-3.85-25.15-11.55-5.76-7.7-8.63-18.96-8.63-33.79s2.95-26.18,8.85-33.84c5.9-7.66,14.5-11.5,25.8-11.5,6.4,0,11.94,1.33,16.62,3.99,4.68,2.66,8.37,6.51,11.06,11.55,2.7,5.04,4.26,11.12,4.7,18.24h-18.57c-1.01-5.11-2.64-8.96-4.91-11.55-2.27-2.59-5.24-3.89-8.91-3.89-4.82,0-8.42,2.23-10.79,6.69-2.38,4.46-3.56,11.23-3.56,20.29s1.12,15.83,3.35,20.29c2.23,4.46,5.61,6.69,10.15,6.69,3.38,0,6.15-1.19,8.31-3.56,2.16-2.37,3.78-5.97,4.86-10.79h18.57c-.43,6.91-1.98,12.79-4.64,17.65-2.66,4.86-6.3,8.58-10.9,11.17-4.61,2.59-10,3.89-16.19,3.89Z"/>
  </g>
  <g>
    <path class="cls-2" d="M99.36,157.68c6.48,.67,12.71,.17,18.83-1.67,11.51-3.46,20.41-10.6,27.96-19.66,5.27-6.33,10.76-12.42,17.38-17.4,3.06-2.3,6.28-4.43,10.13-5.08,1.48-.25,3.17-.18,4.59,.29,4.81,1.58,8.39-1.38,7.46-6.42-.12-.67-.77-1.37-1.36-1.8-4.76-3.44-9.96-3.28-15.26-1.61-5.82,1.83-10.88,5.08-15.24,9.21-5.33,5.05-10.46,10.36-15.31,15.88-5.85,6.66-12.24,12.45-20.63,15.72-6.35,2.47-12.87,3.13-19.56,1.83-.7-.14-1.57-.94-1.81-1.62-1.64-4.6-3.33-9.15-6.33-13.08-5.89-7.7-14.87-9.94-23.79-6.16-6.73,2.85-12.3,7.23-17.47,12.26-.38,.37-.74,.75-1.12,1.11-.09,.08-.22,.11-.33,.16-9.93-7.88-15.57-20.05-12.73-33.31,1.99-9.25,6.67-17.13,12.65-24.27,11.46-13.68,25.48-24,41.75-31.28,12.39-5.55,25.23-9.57,38.85-10.57,12.71-.93,24.78,.97,35.54,8.44,7.16,4.97,11.71,11.97,15.44,19.61,6.94,14.21,11.65,29.21,15.33,44.53,2.25,9.4,4.27,18.87,5.88,28.4,2.48,14.74,3.12,29.65,3.14,44.58,0,1.09,.37,2.32,.95,3.23,6.35,9.87,12.25,19.97,15.45,31.36,.83,2.94,1.07,6.07,1.34,9.14,.08,.87-.46,2.08-1.13,2.69-9.73,8.93-20.67,16.17-32.15,22.63-.28,.16-.6,.22-1.11,.41-1.49-3.16-2.94-6.32-4.47-9.42-.47-.95-.63-2.15-2.44-1.9-2.21,.31-3.88,1.03-4.76,3.11-.13,.31,.21,.86,.4,1.27,1.46,3.09,2.95,6.17,4.41,9.25,.16,.34,.22,.74,.39,1.35-3.5,1.54-6.94,3.17-10.47,4.58-8.4,3.36-16.98,6.24-26.13,6.34-3.62,.04-7.26-.81-10.86-1.44-.73-.13-1.58-.95-1.94-1.67-5.45-11-11.03-21.96-16.15-33.12-2.36-5.16-5.76-7.81-11.34-9.06-9.12-2.03-17.8-5.57-26.31-9.51-11.64-5.39-19.46-14.32-24.58-25.84-3.42-7.69-5.98-15.64-6.02-24.14,0-2.29,.53-4.73,1.4-6.86,4.04-9.8,11.48-16.57,20.52-21.58,7.05-3.91,12.35-2.03,15.72,5.41,3.7,8.18,5.4,16.89,5.72,25.85,.05,1.29-.27,2.61-.59,3.88-.87,3.4,.16,5.7,3.21,7.4,5.8,3.23,11.57,6.5,17.3,9.85,2.83,1.65,5.84,1.22,7.47-1.29,1.61-2.48,.96-5.63-1.78-7.37-4.61-2.92-9.31-5.72-14.02-8.47-.97-.57-1.31-1.08-1.32-2.27-.03-3.27-.34-6.55-.54-9.82-.04-.65-.11-1.29-.18-2.06Zm92.2,61.96c-1.03-.74-1.77-1.7-2.42-1.64-1.02,.09-2.3,.61-2.93,1.39-10.09,12.29-20.09,24.65-30.11,37.01-1.37,1.7-1.39,3.11-.15,4.16,1.29,1.1,2.75,.77,4.18-.98,2.78-3.41,5.54-6.84,8.32-10.26,7.2-8.88,14.42-17.75,21.59-26.65,.64-.8,.95-1.86,1.53-3.03Zm-13.81-28.54c-1.03-.71-1.76-1.62-2.46-1.59-.96,.04-2.2,.54-2.8,1.27-10.13,12.35-20.18,24.76-30.23,37.16-1.33,1.64-1.33,3.14-.1,4.16,1.28,1.05,2.7,.77,4.05-.88,2.42-2.95,4.8-5.92,7.2-8.88,7.58-9.34,15.17-18.66,22.71-28.03,.68-.85,1.01-1.98,1.62-3.22Zm-7.81,42.72c1.52-1.96,2.79-3.57,4-5.22,.1-.14-.18-.59-.31-.88-1.79-3.79-3.56-7.59-5.41-11.35-.23-.46-.91-.95-1.39-.96-1.1-.01-2.23,.17-3.3,.45-1.44,.38-2.33,2.42-1.71,3.73,2.01,4.26,4.01,8.54,6.11,12.76,.28,.56,1.13,.84,2.02,1.47Zm-3.59-21.89c6.59-.97,12.67-1.84,18.75-2.78,1.88-.29,2.86-1.54,2.63-3.04-.23-1.48-1.62-2.29-3.48-2.02-3.76,.54-7.53,1.05-11.28,1.67-.85,.14-1.83,.48-2.4,1.07-1.4,1.45-2.59,3.11-4.21,5.11Zm13.82,28.47c6.57-.96,12.6-1.82,18.61-2.72,1.98-.3,3.01-1.54,2.72-3.14-.28-1.51-1.56-2.23-3.49-1.95-3.7,.53-7.4,1.04-11.09,1.62-.81,.13-1.8,.31-2.31,.85-1.48,1.55-2.76,3.28-4.44,5.35Zm-29.82-45.01c1.19,2.49,2.53,5.27,3.87,8.05,.83,1.72,1.73,1.88,3.03,.52q3.45-3.62,1.36-8.05c-.59-1.25-1.15-2.51-1.82-3.72-.92-1.67-2.9-2.3-4.59-1.56-1.68,.73-2.49,2.6-1.85,4.76Zm2.82,13.6c-.5-.08-.75-.18-.97-.15-5.26,.77-10.52,1.52-15.77,2.36-1.57,.25-2.46,1.28-2.17,2.95,.28,1.64,1.38,2.32,3,2.1,3.51-.49,7.02-.99,10.52-1.53,.42-.06,.91-.27,1.17-.58,1.4-1.63,2.73-3.32,4.22-5.15Zm14.07,28.16c-6.14,.92-11.71,1.71-17.26,2.62-1.51,.25-2.22,1.45-1.9,2.96,.34,1.61,1.48,2.24,3.09,2,3.44-.51,6.89-1.01,10.33-1.57,.52-.09,1.12-.39,1.46-.79,1.33-1.53,2.58-3.13,4.28-5.23Z"/>
    <g>
      <path class="cls-2" d="M255.35,139.66c1.06-7.74,5.78-13.06,11-18.28,9.79-9.81,12.07-22.05,9.97-35.28-.4-2.54-2.09-4.87-3.19-7.29-.24-.53-.74-1.07-.7-1.57,.67-9.09,2.73-17.71,9-24.76,6.37-7.17,14.69-10.51,23.93-11.79,14.38-2,28.32,.38,41.98,4.75,14.57,4.66,28.1,11.31,39.32,21.93,17.24,16.33,23.99,36.4,20.8,59.87-1.43,10.46-5.94,19.8-10.97,28.88-9.25,16.68-20.22,32.18-33.4,45.96-11.02,11.53-23.66,21.22-36.69,30.38-.42,.3-1.26,.33-1.77,.13-31.2-12.02-60.89-26.87-87.84-46.86-.83-.61-1.45-1.55-2.06-2.41-7.66-10.78-14.74-21.89-19.99-34.08-7.41-17.17-6.21-33.96,2.15-50.43,6.54-12.89,17.47-19.22,31.52-20.37,4.23-.35,8.65-.13,12.8,.72,5.51,1.12,8.35,4.8,8.78,10.42,.7,9.03-.78,17.58-6.37,25.05-1.45,1.94-2.79,3.98-4.36,5.82-2.31,2.69-3.91,5.64-4.17,9.21-.24,3.26-.38,6.53-.56,9.8,.27,.07,.55,.14,.82,.2Z"/>
      <path class="cls-2" d="M322.06,242.71c-4.65,10.07-9.36,19.55-16.98,27.26-2.66,2.69-5.24,3.95-9.4,2.79-24.3-6.73-47.14-16.32-66.57-32.81-5.28-4.48-9.67-9.74-12.12-16.4-.66-1.79-.44-3.19,.52-4.88,4.18-7.29,8.17-14.69,12.23-22.05,.35-.63,.7-1.27,1.29-2.34,27.51,21.44,58.56,35.95,91.02,48.42Z"/>
    </g>
  </g>
</svg>