<?xml version="1.0" encoding="UTF-8"?>
<svg id="Layer_1" data-name="Layer 1" xmlns="http://www.w3.org/2000/svg" viewBox="0 0 580.09 419.53">
  <defs>
    <style>
      .cls-1 {
        fill: #fff;
        stroke: #fff;
        stroke-miterlimit: 10;
      }
    </style>
  </defs>
  <path class="cls-1" d="M120.66,211.29c9.01,.94,17.68,.23,26.2-2.33,16.01-4.81,28.4-14.74,38.9-27.35,7.33-8.8,14.97-17.28,24.17-24.2,4.26-3.2,8.73-6.16,14.08-7.07,2.06-.35,4.41-.25,6.39,.4,6.69,2.19,11.67-1.92,10.37-8.93-.17-.93-1.06-1.91-1.89-2.5-6.63-4.79-13.85-4.56-21.23-2.24-8.1,2.54-15.13,7.07-21.19,12.81-7.42,7.03-14.55,14.4-21.3,22.08-8.14,9.27-17.03,17.32-28.7,21.87-8.83,3.44-17.91,4.35-27.2,2.54-.97-.19-2.18-1.3-2.52-2.26-2.28-6.39-4.63-12.72-8.81-18.19-8.19-10.71-20.68-13.83-33.09-8.58-9.35,3.96-17.12,10.06-24.3,17.05-.52,.51-1.03,1.04-1.56,1.54-.12,.11-.31,.15-.46,.23-13.81-10.95-21.66-27.89-17.7-46.33,2.76-12.87,9.28-23.83,17.6-33.76,15.94-19.03,35.44-33.39,58.07-43.51,17.24-7.71,35.09-13.32,54.04-14.7,17.68-1.29,34.47,1.34,49.43,11.73,9.96,6.92,16.29,16.65,21.48,27.27,9.65,19.76,16.21,40.63,21.32,61.94,3.13,13.07,5.94,26.25,8.17,39.51,3.45,20.5,4.35,41.24,4.37,62.01,0,1.51,.51,3.23,1.33,4.5,8.84,13.73,17.04,27.78,21.5,43.62,1.15,4.1,1.49,8.45,1.87,12.72,.11,1.21-.64,2.9-1.57,3.75-13.54,12.42-28.76,22.49-44.72,31.47-.39,.22-.84,.31-1.55,.57-2.08-4.4-4.09-8.78-6.22-13.11-.66-1.33-.87-2.99-3.39-2.64-3.08,.43-5.4,1.44-6.62,4.33-.18,.44,.29,1.2,.56,1.77,2.04,4.3,4.1,8.58,6.14,12.87,.23,.48,.3,1.02,.55,1.88-4.87,2.14-9.65,4.41-14.56,6.37-11.69,4.67-23.62,8.68-36.34,8.82-5.04,.05-10.1-1.13-15.11-2.01-1.02-.18-2.2-1.32-2.7-2.32-7.59-15.31-15.35-30.54-22.46-46.07-3.29-7.18-8.01-10.87-15.78-12.6-12.68-2.83-24.76-7.75-36.59-13.22-16.2-7.5-27.07-19.91-34.19-35.94-4.76-10.7-8.32-21.75-8.37-33.58-.01-3.19,.74-6.58,1.95-9.54,5.62-13.64,15.97-23.04,28.54-30.02,9.81-5.44,17.18-2.83,21.87,7.52,5.15,11.38,7.51,23.49,7.95,35.95,.06,1.79-.37,3.64-.82,5.39-1.21,4.73,.23,7.93,4.46,10.29,8.07,4.49,16.1,9.05,24.07,13.7,3.93,2.29,8.13,1.69,10.4-1.8,2.24-3.44,1.33-7.83-2.48-10.25-6.42-4.06-12.95-7.95-19.5-11.79-1.36-.79-1.82-1.5-1.84-3.15-.04-4.56-.47-9.11-.75-13.66-.06-.9-.15-1.8-.25-2.87Zm128.25,86.18c-1.43-1.02-2.46-2.36-3.36-2.28-1.42,.13-3.19,.85-4.08,1.93-14.03,17.1-27.95,34.29-41.88,51.48-1.91,2.36-1.94,4.33-.21,5.79,1.8,1.53,3.82,1.08,5.81-1.36,3.87-4.75,7.71-9.52,11.57-14.27,10.02-12.35,20.06-24.68,30.03-37.08,.89-1.11,1.32-2.59,2.12-4.21Zm-19.21-39.7c-1.43-.98-2.45-2.25-3.42-2.21-1.34,.06-3.06,.75-3.89,1.77-14.09,17.17-28.07,34.44-42.05,51.69-1.85,2.28-1.86,4.37-.13,5.79,1.78,1.47,3.75,1.07,5.63-1.22,3.36-4.1,6.68-8.24,10.02-12.36,10.54-12.99,21.11-25.96,31.59-38.99,.95-1.18,1.41-2.76,2.25-4.48Zm-10.86,59.42c2.12-2.73,3.88-4.97,5.57-7.27,.14-.2-.25-.82-.44-1.22-2.49-5.27-4.95-10.56-7.53-15.78-.31-.63-1.27-1.33-1.94-1.33-1.53-.02-3.1,.23-4.59,.62-2,.53-3.24,3.37-2.38,5.19,2.8,5.93,5.57,11.87,8.49,17.74,.39,.78,1.57,1.17,2.81,2.04Zm-4.99-30.45c9.16-1.35,17.63-2.56,26.08-3.87,2.62-.41,3.98-2.14,3.65-4.23-.32-2.06-2.26-3.18-4.85-2.81-5.23,.76-10.48,1.46-15.69,2.32-1.18,.19-2.54,.67-3.33,1.49-1.94,2.02-3.6,4.32-5.86,7.1Zm19.22,39.61c9.14-1.33,17.52-2.54,25.89-3.79,2.76-.41,4.19-2.15,3.78-4.37-.39-2.1-2.17-3.1-4.86-2.71-5.14,.74-10.29,1.45-15.42,2.26-1.12,.18-2.5,.43-3.21,1.18-2.06,2.15-3.84,4.57-6.18,7.44Zm-41.47-62.61c1.66,3.46,3.52,7.33,5.38,11.2,1.15,2.4,2.4,2.61,4.21,.72q4.8-5.04,1.9-11.2c-.82-1.73-1.61-3.49-2.53-5.17-1.28-2.32-4.03-3.2-6.38-2.17-2.33,1.02-3.47,3.62-2.57,6.62Zm3.92,18.91c-.7-.11-1.04-.25-1.36-.21-7.32,1.07-14.64,2.12-21.94,3.28-2.19,.35-3.42,1.79-3.02,4.1,.39,2.28,1.92,3.23,4.17,2.92,4.88-.68,9.76-1.38,14.63-2.13,.58-.09,1.26-.38,1.63-.81,1.94-2.27,3.8-4.62,5.87-7.16Zm19.57,39.17c-8.54,1.28-16.29,2.38-24.01,3.65-2.1,.35-3.08,2.02-2.64,4.11,.47,2.23,2.06,3.12,4.3,2.79,4.79-.71,9.58-1.4,14.36-2.18,.73-.12,1.55-.55,2.03-1.1,1.85-2.13,3.59-4.36,5.95-7.27Z"/>
  <g>
    <path class="cls-1" d="M337.64,186.22c1.48-10.77,8.04-18.16,15.3-25.43,13.62-13.65,16.79-30.67,13.87-49.07-.56-3.53-2.91-6.77-4.44-10.14-.33-.73-1.02-1.48-.97-2.18,.94-12.65,3.8-24.63,12.52-34.45,8.86-9.97,20.44-14.62,33.28-16.41,20-2.78,39.39,.53,58.4,6.61,20.27,6.48,39.09,15.73,54.69,30.51,23.99,22.72,33.38,50.63,28.93,83.27-1.98,14.55-8.26,27.54-15.26,40.17-12.86,23.2-28.12,44.76-46.46,63.94-15.33,16.03-32.91,29.52-51.03,42.26-.59,.41-1.75,.46-2.46,.19-43.4-16.72-84.7-37.38-122.18-65.19-1.15-.85-2.02-2.15-2.87-3.35-10.65-14.99-20.5-30.45-27.81-47.41-10.3-23.89-8.64-47.23,3-70.14,9.1-17.93,24.3-26.73,43.85-28.33,5.89-.48,12.03-.17,17.81,1,7.67,1.55,11.61,6.67,12.22,14.49,.97,12.57-1.09,24.46-8.86,34.85-2.02,2.7-3.88,5.54-6.07,8.09-3.21,3.74-5.44,7.85-5.8,12.81-.33,4.54-.53,9.09-.78,13.63,.38,.09,.76,.19,1.14,.28Z"/>
    <path class="cls-1" d="M430.44,329.56c-6.46,14-13.02,27.2-23.62,37.92-3.7,3.74-7.28,5.49-13.08,3.89-33.8-9.36-65.56-22.7-92.6-45.63-7.34-6.23-13.45-13.55-16.86-22.81-.92-2.5-.62-4.43,.73-6.78,5.82-10.14,11.37-20.43,17.02-30.67,.49-.88,.97-1.77,1.8-3.26,38.27,29.82,81.46,50.01,126.61,67.35Z"/>
  </g>
</svg>